<svg version="1.1" xmlns="http://www.w3.org/2000/svg" xmlns:xlink="http://www.w3.org/1999/xlink" width="720.1999999999999" height="770"><style></style><defs></defs><g transform="translate(0,0)"><g><rect fill="#FFFFFF" stroke="none" x="0" y="0" width="720.1999999999999" height="770"></rect></g><g transform="translate(0,0) matrix(1,0,0,1,85,60)"><g><g transform="translate(0,0) scale(4.7,1.5)"><g><path fill="#a61c00" stroke="none" d="M 0 0 L 100 0 Q 100 0 100 0 L 100 100 Q 100 100 100 100 L 0 100 Q 0 100 0 100 L 0 0 Q 0 0 0 0 Z" opacity="0.1"></path><g transform="scale(0.2127659574468085,0.6666666666666666)"><path fill="none" stroke="none" d="M 0 0 L 470 0 Q 470 0 470 0 L 470 150 Q 470 150 470 150 L 0 150 Q 0 150 0 150 L 0 0 Q 0 0 0 0 Z"></path><path fill="none" stroke="#674ea7" d="M 0 0 M 0 0 L 470 0 Q 470 0 470 0 L 470 150 Q 470 150 470 150 L 0 150 Q 0 150 0 150 L 0 0 Q 0 0 0 0 Z" stroke-miterlimit="10" stroke-width="4" opacity="0.1"></path></g></g></g></g></g><g transform="matrix(1,0,0,1,95,135)"><g transform="translate(450,-24) matrix(1,0,0,1,0,0) translate(-450,24)"><g><rect fill="rgb(0,0,0)" stroke="none" x="0" y="0" width="452" height="2" fill-opacity="0"></rect></g></g><g transform="translate(450,-24) matrix(1,0,0,1,0,0) translate(-450,24)"><g></g></g><g transform="translate(450,-24) matrix(1,0,0,1,0,0) translate(-450,24)"><g></g></g><g transform="translate(450,-24) matrix(1,0,0,1,0,0) translate(-450,24)"><g></g></g><g transform="translate(450,-24) matrix(1,0,0,1,0,0) translate(-450,24)"><g></g></g></g><g transform="translate(0,0) matrix(1,0,0,1,85,270)"><g><g transform="translate(0,0) scale(4.7,2.4)"><g><path fill="#3c78d8" stroke="none" d="M 0 0 L 100 0 Q 100 0 100 0 L 100 100 Q 100 100 100 100 L 0 100 Q 0 100 0 100 L 0 0 Q 0 0 0 0 Z" opacity="0.1"></path><g transform="scale(0.2127659574468085,0.4166666666666667)"><path fill="none" stroke="none" d="M 0 0 L 470 0 Q 470 0 470 0 L 470 240 Q 470 240 470 240 L 0 240 Q 0 240 0 240 L 0 0 Q 0 0 0 0 Z"></path><path fill="none" stroke="#8e7cc3" d="M 0 0 M 0 0 L 470 0 Q 470 0 470 0 L 470 240 Q 470 240 470 240 L 0 240 Q 0 240 0 240 L 0 0 Q 0 0 0 0 Z" stroke-miterlimit="10" stroke-width="6" opacity="0.1"></path></g></g></g></g></g><g transform="translate(0,0) matrix(1,0,0,1,355,150)"><g><g transform="translate(0,0) scale(2,0.6)"><g><path fill="#a61c00" stroke="none" d="M 0 0 L 100 0 Q 100 0 100 0 L 100 100 Q 100 100 100 100 L 0 100 Q 0 100 0 100 L 0 0 Q 0 0 0 0 Z" opacity="0.1"></path><g transform="scale(0.5,1.6666666666666667)"><path fill="none" stroke="none" d="M 0 0 L 200 0 Q 200 0 200 0 L 200 60 Q 200 60 200 60 L 0 60 Q 0 60 0 60 L 0 0 Q 0 0 0 0 Z"></path><path fill="none" stroke="#674ea7" d="M 0 0 M 0 0 L 200 0 Q 200 0 200 0 L 200 60 Q 200 60 200 60 L 0 60 Q 0 60 0 60 L 0 0 Q 0 0 0 0 Z" stroke-miterlimit="10" stroke-width="4" opacity="0.1"></path></g></g></g></g></g><g transform="matrix(1,0,0,1,270,102)"><g transform="translate(50,-2) matrix(1,0,0,1,0,0) translate(-50,2)"><g><rect fill="rgb(0,0,0)" stroke="none" x="0" y="0" width="233" height="41" fill-opacity="0"></rect></g></g><g transform="translate(50,-2) matrix(1,0,0,1,0,0) translate(-50,2)"><g><rect fill="rgb(0,0,0)" stroke="none" x="0" y="0" width="233" height="26" fill-opacity="0"></rect></g></g><g transform="translate(50,-2) matrix(1,0,0,1,0,0) translate(-50,2)"><g><rect fill="rgb(0,0,0)" stroke="none" x="50" y="-2" width="132" height="27" fill-opacity="0"></rect></g><text fill="rgb(0, 0, 0)" stroke="none" font-family="Arial" font-size="24.024023056030273px" font-style="normal" font-weight="normal" text-decoration="" line-height="27px" x="50" y="20">Applications</text></g></g><g transform="matrix(1,0,0,1,357,167)"><g transform="translate(33,-2) matrix(1,0,0,1,0,0) translate(-33,2)"><g><rect fill="rgb(0,0,0)" stroke="none" x="0" y="0" width="117" height="41" fill-opacity="0"></rect></g></g><g transform="translate(33,-2) matrix(1,0,0,1,0,0) translate(-33,2)"><g><rect fill="rgb(0,0,0)" stroke="none" x="0" y="0" width="117" height="26" fill-opacity="0"></rect></g></g><g transform="translate(33,-2) matrix(1,0,0,1,0,0) translate(-33,2)"><g><rect fill="rgb(0,0,0)" stroke="none" x="33" y="-2" width="53" height="27" fill-opacity="0"></rect></g><text fill="rgb(0, 0, 0)" stroke="none" font-family="Arial" font-size="24.024023056030273px" font-style="normal" font-weight="normal" text-decoration="" line-height="27px" x="33" y="20">glibc</text></g></g><g transform="matrix(1,0,0,1,270,364)"><g transform="translate(30,-2) matrix(1,0,0,1,0,0) translate(-30,2)"><g><rect fill="rgb(0,0,0)" stroke="none" x="0" y="0" width="233" height="26" fill-opacity="0"></rect></g></g><g transform="translate(30,-2) matrix(1,0,0,1,0,0) translate(-30,2)"><g><rect fill="rgb(0,0,0)" stroke="none" x="0" y="0" width="233" height="26" fill-opacity="0"></rect></g></g><g transform="translate(30,-2) matrix(1,0,0,1,0,0) translate(-30,2)"><g><rect fill="rgb(0,0,0)" stroke="none" x="30" y="-2" width="174" height="27" fill-opacity="0"></rect></g><text fill="rgb(0, 0, 0)" stroke="none" font-family="Arial" font-size="24.024023056030273px" font-style="normal" font-weight="normal" text-decoration="" line-height="27px" x="30" y="20">Kernel</text><text fill="rgb(0, 0, 0)" stroke="none" font-family="Arial" font-size="24.024023056030273px" font-style="normal" font-weight="normal" text-decoration="" line-height="27px" x="107" y="20">functions</text></g></g><g transform="matrix(1,0,0,1,270,440)"><g transform="translate(54,-2) matrix(1,0,0,1,0,0) translate(-54,2)"><g><rect fill="rgb(0,0,0)" stroke="none" x="0" y="0" width="233" height="26" fill-opacity="0"></rect></g></g><g transform="translate(54,-2) matrix(1,0,0,1,0,0) translate(-54,2)"><g><rect fill="rgb(0,0,0)" stroke="none" x="0" y="0" width="233" height="26" fill-opacity="0"></rect></g></g><g transform="translate(54,-2) matrix(1,0,0,1,0,0) translate(-54,2)"><g><rect fill="rgb(0,0,0)" stroke="none" x="54" y="-2" width="123" height="27" fill-opacity="0"></rect></g><text fill="rgb(0, 0, 0)" stroke="none" font-family="Arial" font-size="24.024023056030273px" font-style="normal" font-weight="normal" text-decoration="" line-height="27px" x="54" y="20">Code</text><text fill="rgb(0, 0, 0)" stroke="none" font-family="Arial" font-size="24.024023056030273px" font-style="normal" font-weight="normal" text-decoration="" line-height="27px" x="119" y="20">Lines</text></g></g><g transform="translate(0,0) matrix(1,0,0,1,85,510)"><g><g transform="translate(0,0) scale(4.7,2.4)"><g><path fill="#6aa84f" stroke="none" d="M 0 0 L 100 0 Q 100 0 100 0 L 100 100 Q 100 100 100 100 L 0 100 Q 0 100 0 100 L 0 0 Q 0 0 0 0 Z" opacity="0.1"></path><g transform="scale(0.2127659574468085,0.4166666666666667)"><path fill="none" stroke="none" d="M 0 0 L 470 0 Q 470 0 470 0 L 470 240 Q 470 240 470 240 L 0 240 Q 0 240 0 240 L 0 0 Q 0 0 0 0 Z"></path><path fill="none" stroke="#8e7cc3" d="M 0 0 M 0 0 L 470 0 Q 470 0 470 0 L 470 240 Q 470 240 470 240 L 0 240 Q 0 240 0 240 L 0 0 Q 0 0 0 0 Z" stroke-miterlimit="10" stroke-width="6" opacity="0.1"></path></g></g></g></g></g><g transform="translate(0,0) matrix(1,0,0,1,84.99999999999997,210)"><g><g transform="translate(0,0) scale(4.7,0.6)"><g><path fill="#bf9000" stroke="none" d="M 0 0 L 100 0 Q 100 0 100 0 L 100 100 Q 100 100 100 100 L 0 100 Q 0 100 0 100 L 0 0 Q 0 0 0 0 Z" opacity="0.1"></path><g transform="scale(0.2127659574468085,1.6666666666666667)"><path fill="none" stroke="none" d="M 0 0 L 470 0 Q 470 0 470 0 L 470 60 Q 470 60 470 60 L 0 60 Q 0 60 0 60 L 0 0 Q 0 0 0 0 Z"></path><path fill="none" stroke="#674ea7" d="M 0 0 M 0 0 L 470 0 Q 470 0 470 0 L 470 60 Q 470 60 470 60 L 0 60 Q 0 60 0 60 L 0 0 Q 0 0 0 0 Z" stroke-miterlimit="10" stroke-width="4" opacity="0.1"></path></g></g></g></g></g><g transform="matrix(1,0,0,1,242,229)"><g transform="translate(30,-2) matrix(1,0,0,1,0,0) translate(-30,2)"><g><rect fill="rgb(0,0,0)" stroke="none" x="0" y="0" width="276" height="56" fill-opacity="0"></rect></g></g><g transform="translate(30,-2) matrix(1,0,0,1,0,0) translate(-30,2)"><g><rect fill="rgb(0,0,0)" stroke="none" x="0" y="0" width="276" height="26" fill-opacity="0"></rect></g></g><g transform="translate(30,-2) matrix(1,0,0,1,0,0) translate(-30,2)"><g><rect fill="rgb(0,0,0)" stroke="none" x="30" y="-2" width="216" height="27" fill-opacity="0"></rect></g><text fill="rgb(0, 0, 0)" stroke="none" font-family="Arial" font-size="24.024023056030273px" font-style="normal" font-weight="normal" text-decoration="" line-height="27px" x="30" y="20">system</text><text fill="rgb(0, 0, 0)" stroke="none" font-family="Arial" font-size="24.024023056030273px" font-style="normal" font-weight="normal" text-decoration="" line-height="27px" x="111" y="20">call</text><text fill="rgb(0, 0, 0)" stroke="none" font-family="Arial" font-size="24.024023056030273px" font-style="normal" font-weight="normal" text-decoration="" line-height="27px" x="155" y="20">interface</text></g></g><g transform="matrix(1,0,0,1,82,134)"><g transform="translate(76,-4) matrix(1,0,0,1,0,0) translate(-76,4)"><g><rect fill="rgb(0,0,0)" stroke="none" x="0" y="0" width="147" height="26" fill-opacity="0"></rect></g></g><g transform="translate(76,-4) matrix(1,0,0,1,0,0) translate(-76,4)"><g><rect fill="rgb(0,0,0)" stroke="none" x="0" y="0" width="147" height="26" fill-opacity="0"></rect></g></g><g transform="translate(76,-4) matrix(1,0,0,1,0,0) translate(-76,4)"><g><rect fill="rgb(0,0,0)" stroke="none" x="38" y="-2" width="71" height="27" fill-opacity="0"></rect></g></g><g transform="translate(76,-4) matrix(1,0,0,1,0,0) translate(-76,4)"><g><rect fill="rgb(0,0,0)" stroke="none" x="38" y="-2" width="71" height="27" fill-opacity="0"></rect></g><text fill="rgb(49, 33, 1)" stroke="none" font-family="Arial" font-size="24.024023056030273px" font-style="normal" font-weight="normal" text-decoration="" line-height="27px" x="38" y="20">用</text><text fill="rgb(49, 33, 1)" stroke="none" font-family="Arial" font-size="24.024023056030273px" font-style="normal" font-weight="normal" text-decoration="" line-height="27px" x="60" y="20">户</text><text fill="rgb(49, 33, 1)" stroke="none" font-family="Arial" font-size="24.024023056030273px" font-style="normal" font-weight="normal" text-decoration="" line-height="27px" x="84" y="20">态</text></g></g><g transform="matrix(1,0,0,1,82,380)"><g transform="translate(76,-4) matrix(1,0,0,1,0,0) translate(-76,4)"><g><rect fill="rgb(0,0,0)" stroke="none" x="0" y="0" width="147" height="26" fill-opacity="0"></rect></g></g><g transform="translate(76,-4) matrix(1,0,0,1,0,0) translate(-76,4)"><g><rect fill="rgb(0,0,0)" stroke="none" x="0" y="0" width="147" height="26" fill-opacity="0"></rect></g></g><g transform="translate(76,-4) matrix(1,0,0,1,0,0) translate(-76,4)"><g><rect fill="rgb(0,0,0)" stroke="none" x="38" y="-2" width="71" height="27" fill-opacity="0"></rect></g></g><g transform="translate(76,-4) matrix(1,0,0,1,0,0) translate(-76,4)"><g><rect fill="rgb(0,0,0)" stroke="none" x="38" y="-2" width="71" height="27" fill-opacity="0"></rect></g><text fill="rgb(49, 33, 1)" stroke="none" font-family="Arial" font-size="24.024023056030273px" font-style="normal" font-weight="normal" text-decoration="" line-height="27px" x="38" y="20">内</text><text fill="rgb(49, 33, 1)" stroke="none" font-family="Arial" font-size="24.024023056030273px" font-style="normal" font-weight="normal" text-decoration="" line-height="27px" x="62" y="20">核</text><text fill="rgb(49, 33, 1)" stroke="none" font-family="Arial" font-size="24.024023056030273px" font-style="normal" font-weight="normal" text-decoration="" line-height="27px" x="84" y="20">态</text></g></g><g transform="matrix(1,0,0,1,82,618)"><g transform="translate(102,-4) matrix(1,0,0,1,0,0) translate(-102,4)"><g><rect fill="rgb(0,0,0)" stroke="none" x="0" y="0" width="147" height="26" fill-opacity="0"></rect></g></g><g transform="translate(102,-4) matrix(1,0,0,1,0,0) translate(-102,4)"><g><rect fill="rgb(0,0,0)" stroke="none" x="0" y="0" width="147" height="26" fill-opacity="0"></rect></g></g><g transform="translate(102,-4) matrix(1,0,0,1,0,0) translate(-102,4)"><g><rect fill="rgb(0,0,0)" stroke="none" x="51" y="-2" width="47" height="27" fill-opacity="0"></rect></g></g><g transform="translate(102,-4) matrix(1,0,0,1,0,0) translate(-102,4)"><g><rect fill="rgb(0,0,0)" stroke="none" x="51" y="-2" width="47" height="27" fill-opacity="0"></rect></g><text fill="rgb(49, 33, 1)" stroke="none" font-family="Arial" font-size="24.024023056030273px" font-style="normal" font-weight="normal" text-decoration="" line-height="27px" x="51" y="20">硬</text><text fill="rgb(49, 33, 1)" stroke="none" font-family="Arial" font-size="24.024023056030273px" font-style="normal" font-weight="normal" text-decoration="" line-height="27px" x="74" y="20">件</text></g></g><g transform="matrix(1,0,0,1,270,528)"><g transform="translate(611,1419) matrix(1,0,0,1,0,0) translate(-611,-1419)"><g><rect fill="rgb(0,0,0)" stroke="none" x="0" y="0" width="233" height="204" fill-opacity="0"></rect></g></g><g transform="translate(611,1419) matrix(1,0,0,1,0,0) translate(-611,-1419)"><g><rect fill="rgb(0,0,0)" stroke="none" x="0" y="0" width="233" height="26" fill-opacity="0"></rect></g></g><g transform="translate(611,1419) matrix(1,0,0,1,0,0) translate(-611,-1419)"><g><rect fill="rgb(0,0,0)" stroke="none" x="83" y="-2" width="69" height="27" fill-opacity="0"></rect></g><text fill="rgb(0, 0, 0)" stroke="none" font-family="Arial" font-size="24.024023056030273px" font-style="normal" font-weight="normal" text-decoration="" line-height="27px" x="83" y="20">cycles</text></g><g transform="translate(611,1419) matrix(1,0,0,1,0,0) translate(-611,-1419)"><g><rect fill="rgb(0,0,0)" stroke="none" x="0" y="26" width="233" height="26" fill-opacity="0"></rect></g></g><g transform="translate(611,1419) matrix(1,0,0,1,0,0) translate(-611,-1419)"><g><rect fill="rgb(0,0,0)" stroke="none" x="56" y="24" width="123" height="27" fill-opacity="0"></rect></g><text fill="rgb(0, 0, 0)" stroke="none" font-family="Arial" font-size="24.024023056030273px" font-style="normal" font-weight="normal" text-decoration="" line-height="27px" x="56" y="46">instructions</text></g><g transform="translate(611,1419) matrix(1,0,0,1,0,0) translate(-611,-1419)"><g><rect fill="rgb(0,0,0)" stroke="none" x="0" y="51" width="233" height="26" fill-opacity="0"></rect></g></g><g transform="translate(611,1419) matrix(1,0,0,1,0,0) translate(-611,-1419)"><g><rect fill="rgb(0,0,0)" stroke="none" x="56" y="50" width="123" height="27" fill-opacity="0"></rect></g><text fill="rgb(0, 0, 0)" stroke="none" font-family="Arial" font-size="24.024023056030273px" font-style="normal" font-weight="normal" text-decoration="" line-height="27px" x="56" y="72">cache</text><text fill="rgb(0, 0, 0)" stroke="none" font-family="Arial" font-size="24.024023056030273px" font-style="normal" font-weight="normal" text-decoration="" line-height="27px" x="120" y="72">-</text><text fill="rgb(0, 0, 0)" stroke="none" font-family="Arial" font-size="24.024023056030273px" font-style="normal" font-weight="normal" text-decoration="" line-height="27px" x="128" y="72">miss</text></g><g transform="translate(611,1419) matrix(1,0,0,1,0,0) translate(-611,-1419)"><g><rect fill="rgb(0,0,0)" stroke="none" x="0" y="77" width="233" height="26" fill-opacity="0"></rect></g></g><g transform="translate(611,1419) matrix(1,0,0,1,0,0) translate(-611,-1419)"><g><rect fill="rgb(0,0,0)" stroke="none" x="51" y="75" width="132" height="27" fill-opacity="0"></rect></g><text fill="rgb(0, 0, 0)" stroke="none" font-family="Arial" font-size="24.024023056030273px" font-style="normal" font-weight="normal" text-decoration="" line-height="27px" x="51" y="97">branch</text><text fill="rgb(0, 0, 0)" stroke="none" font-family="Arial" font-size="24.024023056030273px" font-style="normal" font-weight="normal" text-decoration="" line-height="27px" x="125" y="97">-</text><text fill="rgb(0, 0, 0)" stroke="none" font-family="Arial" font-size="24.024023056030273px" font-style="normal" font-weight="normal" text-decoration="" line-height="27px" x="132" y="97">miss</text></g><g transform="translate(611,1419) matrix(1,0,0,1,0,0) translate(-611,-1419)"><g><rect fill="rgb(0,0,0)" stroke="none" x="0" y="102" width="233" height="26" fill-opacity="0"></rect></g></g><g transform="translate(611,1419) matrix(1,0,0,1,0,0) translate(-611,-1419)"><g><rect fill="rgb(0,0,0)" stroke="none" x="95" y="101" width="45" height="27" fill-opacity="0"></rect></g><text fill="rgb(0, 0, 0)" stroke="none" font-family="Arial" font-size="24.024023056030273px" font-style="normal" font-weight="normal" text-decoration="" line-height="27px" x="95" y="123">L1</text><text fill="rgb(0, 0, 0)" stroke="none" font-family="Arial" font-size="24.024023056030273px" font-style="normal" font-weight="normal" text-decoration="" line-height="27px" x="122" y="123">-*</text></g><g transform="translate(611,1419) matrix(1,0,0,1,0,0) translate(-611,-1419)"><g><rect fill="rgb(0,0,0)" stroke="none" x="0" y="128" width="233" height="26" fill-opacity="0"></rect></g></g><g transform="translate(611,1419) matrix(1,0,0,1,0,0) translate(-611,-1419)"><g><rect fill="rgb(0,0,0)" stroke="none" x="86" y="126" width="63" height="27" fill-opacity="0"></rect></g><text fill="rgb(0, 0, 0)" stroke="none" font-family="Arial" font-size="24.024023056030273px" font-style="normal" font-weight="normal" text-decoration="" line-height="27px" x="86" y="148">LLC</text><text fill="rgb(0, 0, 0)" stroke="none" font-family="Arial" font-size="24.024023056030273px" font-style="normal" font-weight="normal" text-decoration="" line-height="27px" x="131" y="148">-*</text></g><g transform="translate(611,1419) matrix(1,0,0,1,0,0) translate(-611,-1419)"><g><rect fill="rgb(0,0,0)" stroke="none" x="0" y="153" width="233" height="26" fill-opacity="0"></rect></g></g><g transform="translate(611,1419) matrix(1,0,0,1,0,0) translate(-611,-1419)"><g><rect fill="rgb(0,0,0)" stroke="none" x="86" y="152" width="63" height="27" fill-opacity="0"></rect></g><text fill="rgb(0, 0, 0)" stroke="none" font-family="Arial" font-size="24.024023056030273px" font-style="normal" font-weight="normal" text-decoration="" line-height="27px" x="86" y="174">TLB</text><text fill="rgb(0, 0, 0)" stroke="none" font-family="Arial" font-size="24.024023056030273px" font-style="normal" font-weight="normal" text-decoration="" line-height="27px" x="131" y="174">-*</text></g><g transform="translate(611,1419) matrix(1,0,0,1,0,0) translate(-611,-1419)"><g><rect fill="rgb(0,0,0)" stroke="none" x="0" y="179" width="233" height="26" fill-opacity="0"></rect></g></g><g transform="translate(611,1419) matrix(1,0,0,1,0,0) translate(-611,-1419)"><g><rect fill="rgb(0,0,0)" stroke="none" x="98" y="177" width="36" height="27" fill-opacity="0"></rect></g><text fill="rgb(0, 0, 0)" stroke="none" font-family="Arial" font-size="24.024023056030273px" font-style="normal" font-weight="normal" text-decoration="" line-height="27px" x="98" y="199">......</text></g></g><g transform="translate(0,0) matrix(1,0,0,1,555,160.75)"><g><g transform="translate(0,0) scale(1.4,0.37)"><g><path fill="#FCD186" stroke="none" d="M 0 0 L 100 0 Q 100 0 100 0 L 100 100 Q 100 100 100 100 L 0 100 Q 0 100 0 100 L 0 0 Q 0 0 0 0 Z"></path><g transform="scale(0.7142857142857143,2.7027027027027026)"><path fill="none" stroke="none" d="M 0 0 L 140 0 Q 140 0 140 0 L 140 37 Q 140 37 140 37 L 0 37 Q 0 37 0 37 L 0 0 Q 0 0 0 0 Z"></path><path fill="none" stroke="#DA8707" d="M 0 0 M 0 0 L 140 0 Q 140 0 140 0 L 140 37 Q 140 37 140 37 L 0 37 Q 0 37 0 37 L 0 0 Q 0 0 0 0 Z" stroke-miterlimit="10" stroke-width="2"></path></g></g></g></g></g><g transform="matrix(1,0,0,1,566,166)"><g transform="translate(60,-4) matrix(1,0,0,1,0,0) translate(-60,4)"><g><rect fill="rgb(0,0,0)" stroke="none" x="0" y="0" width="120" height="26" fill-opacity="0"></rect></g></g><g transform="translate(60,-4) matrix(1,0,0,1,0,0) translate(-60,4)"><g><rect fill="rgb(0,0,0)" stroke="none" x="0" y="0" width="120" height="26" fill-opacity="0"></rect></g></g><g transform="translate(60,-4) matrix(1,0,0,1,0,0) translate(-60,4)"><g><rect fill="rgb(0,0,0)" stroke="none" x="30" y="-2" width="59" height="27" fill-opacity="0"></rect></g></g><g transform="translate(60,-4) matrix(1,0,0,1,0,0) translate(-60,4)"><g><rect fill="rgb(0,0,0)" stroke="none" x="30" y="-2" width="59" height="27" fill-opacity="0"></rect></g><text fill="rgb(49, 33, 1)" stroke="none" font-family="Arial" font-size="24.024023056030273px" font-style="normal" font-weight="normal" text-decoration="" line-height="27px" x="30" y="20">ltrace</text></g></g><g transform="translate(0,0) matrix(1,0,0,1,555,78.75)"><g><g transform="translate(0,0) scale(1.4,0.37)"><g><path fill="#FCD186" stroke="none" d="M 0 0 L 100 0 Q 100 0 100 0 L 100 100 Q 100 100 100 100 L 0 100 Q 0 100 0 100 L 0 0 Q 0 0 0 0 Z"></path><g transform="scale(0.7142857142857143,2.7027027027027026)"><path fill="none" stroke="none" d="M 0 0 L 140 0 Q 140 0 140 0 L 140 37 Q 140 37 140 37 L 0 37 Q 0 37 0 37 L 0 0 Q 0 0 0 0 Z"></path><path fill="none" stroke="#DA8707" d="M 0 0 M 0 0 L 140 0 Q 140 0 140 0 L 140 37 Q 140 37 140 37 L 0 37 Q 0 37 0 37 L 0 0 Q 0 0 0 0 Z" stroke-miterlimit="10" stroke-width="2"></path></g></g></g></g></g><g transform="matrix(1,0,0,1,566,84)"><g transform="translate(46,-4) matrix(1,0,0,1,0,0) translate(-46,4)"><g><rect fill="rgb(0,0,0)" stroke="none" x="0" y="0" width="120" height="26" fill-opacity="0"></rect></g></g><g transform="translate(46,-4) matrix(1,0,0,1,0,0) translate(-46,4)"><g><rect fill="rgb(0,0,0)" stroke="none" x="0" y="0" width="120" height="26" fill-opacity="0"></rect></g></g><g transform="translate(46,-4) matrix(1,0,0,1,0,0) translate(-46,4)"><g><rect fill="rgb(0,0,0)" stroke="none" x="23" y="-2" width="77" height="27" fill-opacity="0"></rect></g></g><g transform="translate(46,-4) matrix(1,0,0,1,0,0) translate(-46,4)"><g><rect fill="rgb(0,0,0)" stroke="none" x="23" y="-2" width="77" height="27" fill-opacity="0"></rect></g><text fill="rgb(49, 33, 1)" stroke="none" font-family="Arial" font-size="24.024023056030273px" font-style="normal" font-weight="normal" text-decoration="" line-height="27px" x="23" y="20">uprobe</text></g></g><g transform="translate(0,0) matrix(1,0,0,1,555,224.25)"><g><g transform="translate(0,0) scale(1.4,0.37)"><g><path fill="#FCD186" stroke="none" d="M 0 0 L 100 0 Q 100 0 100 0 L 100 100 Q 100 100 100 100 L 0 100 Q 0 100 0 100 L 0 0 Q 0 0 0 0 Z"></path><g transform="scale(0.7142857142857143,2.7027027027027026)"><path fill="none" stroke="none" d="M 0 0 L 140 0 Q 140 0 140 0 L 140 37 Q 140 37 140 37 L 0 37 Q 0 37 0 37 L 0 0 Q 0 0 0 0 Z"></path><path fill="none" stroke="#DA8707" d="M 0 0 M 0 0 L 140 0 Q 140 0 140 0 L 140 37 Q 140 37 140 37 L 0 37 Q 0 37 0 37 L 0 0 Q 0 0 0 0 Z" stroke-miterlimit="10" stroke-width="2"></path></g></g></g></g></g><g transform="matrix(1,0,0,1,566,230)"><g transform="translate(54,-4) matrix(1,0,0,1,0,0) translate(-54,4)"><g><rect fill="rgb(0,0,0)" stroke="none" x="0" y="0" width="120" height="26" fill-opacity="0"></rect></g></g><g transform="translate(54,-4) matrix(1,0,0,1,0,0) translate(-54,4)"><g><rect fill="rgb(0,0,0)" stroke="none" x="0" y="0" width="120" height="26" fill-opacity="0"></rect></g></g><g transform="translate(54,-4) matrix(1,0,0,1,0,0) translate(-54,4)"><g><rect fill="rgb(0,0,0)" stroke="none" x="27" y="-2" width="65" height="27" fill-opacity="0"></rect></g></g><g transform="translate(54,-4) matrix(1,0,0,1,0,0) translate(-54,4)"><g><rect fill="rgb(0,0,0)" stroke="none" x="27" y="-2" width="65" height="27" fill-opacity="0"></rect></g><text fill="rgb(49, 33, 1)" stroke="none" font-family="Arial" font-size="24.024023056030273px" font-style="normal" font-weight="normal" text-decoration="" line-height="27px" x="27" y="20">strace</text></g></g><g transform="translate(0,0) matrix(1,0,0,1,555,300.75)"><g><g transform="translate(0,0) scale(1.4,0.37)"><g><path fill="#FCD186" stroke="none" d="M 0 0 L 100 0 Q 100 0 100 0 L 100 100 Q 100 100 100 100 L 0 100 Q 0 100 0 100 L 0 0 Q 0 0 0 0 Z"></path><g transform="scale(0.7142857142857143,2.7027027027027026)"><path fill="none" stroke="none" d="M 0 0 L 140 0 Q 140 0 140 0 L 140 37 Q 140 37 140 37 L 0 37 Q 0 37 0 37 L 0 0 Q 0 0 0 0 Z"></path><path fill="none" stroke="#DA8707" d="M 0 0 M 0 0 L 140 0 Q 140 0 140 0 L 140 37 Q 140 37 140 37 L 0 37 Q 0 37 0 37 L 0 0 Q 0 0 0 0 Z" stroke-miterlimit="10" stroke-width="2"></path></g></g></g></g></g><g transform="matrix(1,0,0,1,566,306)"><g transform="translate(52,-4) matrix(1,0,0,1,0,0) translate(-52,4)"><g><rect fill="rgb(0,0,0)" stroke="none" x="0" y="0" width="120" height="26" fill-opacity="0"></rect></g></g><g transform="translate(52,-4) matrix(1,0,0,1,0,0) translate(-52,4)"><g><rect fill="rgb(0,0,0)" stroke="none" x="0" y="0" width="120" height="26" fill-opacity="0"></rect></g></g><g transform="translate(52,-4) matrix(1,0,0,1,0,0) translate(-52,4)"><g><rect fill="rgb(0,0,0)" stroke="none" x="26" y="-2" width="68" height="27" fill-opacity="0"></rect></g></g><g transform="translate(52,-4) matrix(1,0,0,1,0,0) translate(-52,4)"><g><rect fill="rgb(0,0,0)" stroke="none" x="26" y="-2" width="68" height="27" fill-opacity="0"></rect></g><text fill="rgb(49, 33, 1)" stroke="none" font-family="Arial" font-size="24.024023056030273px" font-style="normal" font-weight="normal" text-decoration="" line-height="27px" x="26" y="20">Ftrace</text></g></g><g transform="translate(0,0) matrix(1,0,0,1,555,379.5)"><g><g transform="translate(0,0) scale(1.4,0.37)"><g><path fill="#FCD186" stroke="none" d="M 0 0 L 100 0 Q 100 0 100 0 L 100 100 Q 100 100 100 100 L 0 100 Q 0 100 0 100 L 0 0 Q 0 0 0 0 Z"></path><g transform="scale(0.7142857142857143,2.7027027027027026)"><path fill="none" stroke="none" d="M 0 0 L 140 0 Q 140 0 140 0 L 140 37 Q 140 37 140 37 L 0 37 Q 0 37 0 37 L 0 0 Q 0 0 0 0 Z"></path><path fill="none" stroke="#DA8707" d="M 0 0 M 0 0 L 140 0 Q 140 0 140 0 L 140 37 Q 140 37 140 37 L 0 37 Q 0 37 0 37 L 0 0 Q 0 0 0 0 Z" stroke-miterlimit="10" stroke-width="2"></path></g></g></g></g></g><g transform="matrix(1,0,0,1,566,385)"><g transform="translate(4,-4) matrix(1,0,0,1,0,0) translate(-4,4)"><g><rect fill="rgb(0,0,0)" stroke="none" x="0" y="0" width="120" height="26" fill-opacity="0"></rect></g></g><g transform="translate(4,-4) matrix(1,0,0,1,0,0) translate(-4,4)"><g><rect fill="rgb(0,0,0)" stroke="none" x="0" y="0" width="120" height="26" fill-opacity="0"></rect></g></g><g transform="translate(4,-4) matrix(1,0,0,1,0,0) translate(-4,4)"><g><rect fill="rgb(0,0,0)" stroke="none" x="2" y="-2" width="119" height="27" fill-opacity="0"></rect></g></g><g transform="translate(4,-4) matrix(1,0,0,1,0,0) translate(-4,4)"><g><rect fill="rgb(0,0,0)" stroke="none" x="2" y="-2" width="119" height="27" fill-opacity="0"></rect></g><text fill="rgb(49, 33, 1)" stroke="none" font-family="Arial" font-size="24.024023056030273px" font-style="normal" font-weight="normal" text-decoration="" line-height="27px" x="2" y="20">tracepoints</text></g></g><g transform="translate(0,0) matrix(1,0,0,1,555,450)"><g><g transform="translate(0,0) scale(1.4,0.37)"><g><path fill="#FCD186" stroke="none" d="M 0 0 L 100 0 Q 100 0 100 0 L 100 100 Q 100 100 100 100 L 0 100 Q 0 100 0 100 L 0 0 Q 0 0 0 0 Z"></path><g transform="scale(0.7142857142857143,2.7027027027027026)"><path fill="none" stroke="none" d="M 0 0 L 140 0 Q 140 0 140 0 L 140 37 Q 140 37 140 37 L 0 37 Q 0 37 0 37 L 0 0 Q 0 0 0 0 Z"></path><path fill="none" stroke="#DA8707" d="M 0 0 M 0 0 L 140 0 Q 140 0 140 0 L 140 37 Q 140 37 140 37 L 0 37 Q 0 37 0 37 L 0 0 Q 0 0 0 0 Z" stroke-miterlimit="10" stroke-width="2"></path></g></g></g></g></g><g transform="matrix(1,0,0,1,566,456)"><g transform="translate(42,-4) matrix(1,0,0,1,0,0) translate(-42,4)"><g><rect fill="rgb(0,0,0)" stroke="none" x="0" y="0" width="120" height="26" fill-opacity="0"></rect></g></g><g transform="translate(42,-4) matrix(1,0,0,1,0,0) translate(-42,4)"><g><rect fill="rgb(0,0,0)" stroke="none" x="0" y="0" width="120" height="26" fill-opacity="0"></rect></g></g><g transform="translate(42,-4) matrix(1,0,0,1,0,0) translate(-42,4)"><g><rect fill="rgb(0,0,0)" stroke="none" x="21" y="-2" width="80" height="27" fill-opacity="0"></rect></g></g><g transform="translate(42,-4) matrix(1,0,0,1,0,0) translate(-42,4)"><g><rect fill="rgb(0,0,0)" stroke="none" x="21" y="-2" width="80" height="27" fill-opacity="0"></rect></g><text fill="rgb(49, 33, 1)" stroke="none" font-family="Arial" font-size="24.024023056030273px" font-style="normal" font-weight="normal" text-decoration="" line-height="27px" x="21" y="20">Kprobe</text></g></g><g transform="translate(0,0) matrix(1,0,0,1,555,612.25)"><g><g transform="translate(0,0) scale(1.4,0.37)"><g><path fill="#FCD186" stroke="none" d="M 0 0 L 100 0 Q 100 0 100 0 L 100 100 Q 100 100 100 100 L 0 100 Q 0 100 0 100 L 0 0 Q 0 0 0 0 Z"></path><g transform="scale(0.7142857142857143,2.7027027027027026)"><path fill="none" stroke="none" d="M 0 0 L 140 0 Q 140 0 140 0 L 140 37 Q 140 37 140 37 L 0 37 Q 0 37 0 37 L 0 0 Q 0 0 0 0 Z"></path><path fill="none" stroke="#DA8707" d="M 0 0 M 0 0 L 140 0 Q 140 0 140 0 L 140 37 Q 140 37 140 37 L 0 37 Q 0 37 0 37 L 0 0 Q 0 0 0 0 Z" stroke-miterlimit="10" stroke-width="2"></path></g></g></g></g></g><g transform="matrix(1,0,0,1,566,618)"><g transform="translate(76,-4) matrix(1,0,0,1,0,0) translate(-76,4)"><g><rect fill="rgb(0,0,0)" stroke="none" x="0" y="0" width="120" height="26" fill-opacity="0"></rect></g></g><g transform="translate(76,-4) matrix(1,0,0,1,0,0) translate(-76,4)"><g><rect fill="rgb(0,0,0)" stroke="none" x="0" y="0" width="120" height="26" fill-opacity="0"></rect></g></g><g transform="translate(76,-4) matrix(1,0,0,1,0,0) translate(-76,4)"><g><rect fill="rgb(0,0,0)" stroke="none" x="38" y="-2" width="44" height="27" fill-opacity="0"></rect></g></g><g transform="translate(76,-4) matrix(1,0,0,1,0,0) translate(-76,4)"><g><rect fill="rgb(0,0,0)" stroke="none" x="38" y="-2" width="44" height="27" fill-opacity="0"></rect></g><text fill="rgb(49, 33, 1)" stroke="none" font-family="Arial" font-size="24.024023056030273px" font-style="normal" font-weight="normal" text-decoration="" line-height="27px" x="38" y="20">Perf</text></g></g></g></svg>